<?xml version="1.0" encoding="UTF-8"?>
<svg version="1.1" xmlns="http://www.w3.org/2000/svg" width="300" height="153">
    <path d="M0 0 C7.13067787 3.56533894 11.7065323 10.1969325 16.36019897 16.53213501 C28.07491732 32.34612467 42.09206846 50.90181414 62.59154665 54.42703092 C70.37913983 55.53633294 78.19599165 55.72227475 86.05078125 55.66796875 C86.78114892 55.66316199 87.5115166 55.65835523 88.26401663 55.65340281 C97.31928428 55.56240517 106.34788399 55.14018745 115.38569915 54.59141266 C127.67044401 53.84906675 139.97049765 53.46362046 152.27239102 53.13463002 C156.57053176 53.01201012 160.85383101 52.80504603 165.14468998 52.52839285 C186.47808901 51.20075134 186.47808901 51.20075134 192.28085327 55.76431274 C195.35409451 58.88047089 197.38602565 61.93189948 199 66 C198.58959151 71.65183501 193.62169637 77.09330021 189.62841797 80.88671875 C185.11456691 83.97264991 179.10008782 82.79367361 174 82 C173.2575 80.2984375 173.2575 80.2984375 172.5 78.5625 C171.17458751 76.1805993 170.569875 75.1914084 167.953125 74.3125 C165.49839194 73.99817869 165.49839194 73.99817869 162 74 C161.690625 74.94875 161.38125 75.8975 161.0625 76.875 C160 80 160 80 159 82 C155.7 82 152.4 82 149 82 C146 76.25 146 76.25 146 74 C141.89918577 74.05460162 141.89918577 74.05460162 138 75 C136.05416558 77.22381076 135.20110988 79.24745652 134 82 C131.03 82 128.06 82 125 82 C122 76.25 122 76.25 122 74 C117.84715986 73.93154691 117.84715986 73.93154691 114 75 C112.86643745 76.63895747 112.86643745 76.63895747 111.86621094 78.55639648 C110.94243652 80.26098022 110.94243652 80.26098022 110 82 C56.3293122 85.62717585 56.3293122 85.62717585 46.00390625 77.72265625 C41.69370451 73.74321339 38.33860827 69.31466079 35.36572266 64.26806641 C33.62485078 61.37698673 31.48968561 59.26149838 29 57 C28.18789062 56.17757812 27.37578125 55.35515625 26.5390625 54.5078125 C23.88271979 51.88416324 21.1459671 49.37708619 18.375 46.875 C12.38866233 41.43706504 6.6679084 35.7683241 1 30 C-4.18283317 34.18354303 -8.61419606 38.74074248 -13.06265259 43.69320679 C-16.34787044 47.33769065 -19.70001545 50.91535496 -23.06533241 54.48575401 C-25.59952718 57.18160738 -28.10074371 59.89704845 -30.54345703 62.67626953 C-47.95956647 82.42242068 -47.95956647 82.42242068 -59.99121094 83.41113281 C-67.03807366 83.7570208 -74.04246913 83.09788954 -81 82 C-79.28687678 78.34413431 -77.23768004 76.00654596 -74.3515625 73.15625 C-73.42859375 72.23972656 -72.505625 71.32320313 -71.5546875 70.37890625 C-70.57824882 69.41914485 -69.60168518 68.45951056 -68.625 67.5 C-67.65578861 66.54083058 -66.68703384 65.58119952 -65.71875 64.62109375 C-63.93146054 62.85122912 -62.14212526 61.08342637 -60.35009766 59.31835938 C-58.81413598 57.803141 -57.30193325 56.26335136 -55.81787109 54.69726562 C-54 53 -54 53 -52 53 C-52 43.43 -52 33.86 -52 24 C-45.4 24 -38.8 24 -32 24 C-31.505 27.465 -31.505 27.465 -31 31 C-20.77 20.77 -10.54 10.54 0 0 Z M61 59 C61 59.33 61 59.66 61 60 C102.25 60 143.5 60 186 60 C186 59.67 186 59.34 186 59 C144.75 59 103.5 59 61 59 Z " fill="#5E17EB" transform="translate(93,9)"/>
    <path d="M0 0 C3.46174805 1.43907917 5.19653147 3.16580989 7.453125 6.1328125 C8.071875 6.93847656 8.690625 7.74414062 9.328125 8.57421875 C9.96234375 9.41597656 10.5965625 10.25773437 11.25 11.125 C11.8996875 11.97449219 12.549375 12.82398437 13.21875 13.69921875 C14.81949278 15.79430856 16.41286033 17.8945977 18 20 C22.33725929 15.8644737 25.82778775 11.39592379 29.33789062 6.55273438 C31.79437309 3.25838192 33.21624747 1.89187626 37 0 C37 12.87 37 25.74 37 39 C34.03 39 31.06 39 28 39 C27.67 34.38 27.34 29.76 27 25 C23.04 29.455 23.04 29.455 19 34 C15.32462411 31.05969929 12.87380756 28.83174342 10 25 C9.67 29.62 9.34 34.24 9 39 C2.06640625 39.09765625 2.06640625 39.09765625 0 39 C-1.78365341 37.21634659 -1.12846636 34.82382995 -1.13894653 32.44923401 C-1.1369223 31.67321335 -1.13489807 30.89719269 -1.1328125 30.09765625 C-1.13376923 29.30475693 -1.13472595 28.5118576 -1.13571167 27.69493103 C-1.13639351 26.0144747 -1.13453896 24.33401575 -1.13037109 22.65356445 C-1.1250299 20.07692555 -1.13031228 17.50046152 -1.13671875 14.92382812 C-1.13605783 13.29427045 -1.13477638 11.66471288 -1.1328125 10.03515625 C-1.13483673 9.26115982 -1.13686096 8.48716339 -1.13894653 7.68971252 C-1.11495583 2.22991166 -1.11495583 2.22991166 0 0 Z " fill="#5E17EB" transform="translate(177,103)"/>
    <path d="M0 0 C22.89217759 0 22.89217759 0 27.9140625 4.84765625 C30.00439495 8.99072525 29.51638104 13.48669556 29 18 C27.5625 21 27.5625 21 26 23 C24.65378757 25.89709301 24.65378757 25.89709301 25.99609375 28.15625 C26.47175781 28.9296875 26.94742188 29.703125 27.4375 30.5 C30 34.6893733 30 34.6893733 30 38 C26.7 38 23.4 38 20 38 C19.43732422 36.82630859 19.43732422 36.82630859 18.86328125 35.62890625 C18.35152344 34.61699219 17.83976562 33.60507813 17.3125 32.5625 C16.56419922 31.04849609 16.56419922 31.04849609 15.80078125 29.50390625 C14.00785816 26.41087373 14.00785816 26.41087373 9 26 C9 29.96 9 33.92 9 38 C6.03 38 3.06 38 0 38 C0 25.46 0 12.92 0 0 Z M9 9 C9 11.97 9 14.94 9 18 C13.96551325 18.35606813 13.96551325 18.35606813 18.4375 16.5 C18.953125 16.005 19.46875 15.51 20 15 C19.62095792 11.70924004 19.62095792 11.70924004 18 9 C14.99668982 8.85806663 12.00782866 8.95763622 9 9 Z " fill="#5E17EB" transform="translate(99,104)"/>
    <path d="M0 0 C8.25 0 16.5 0 25 0 C25 2.64 25 5.28 25 8 C24 9 24 9 20.83984375 9.09765625 C18.90818359 9.08025391 18.90818359 9.08025391 16.9375 9.0625 C15.64714844 9.05347656 14.35679687 9.04445313 13.02734375 9.03515625 C12.02832031 9.02355469 11.02929688 9.01195313 10 9 C10 11.97 10 14.94 10 18 C14.29 18 18.58 18 23 18 C23 20.64 23 23.28 23 26 C18.71 26 14.42 26 10 26 C10 27.32 10 28.64 10 30 C14.95 30 19.9 30 25 30 C25 32.64 25 35.28 25 38 C16.75 38 8.5 38 0 38 C0 25.46 0 12.92 0 0 Z " fill="#5E17EB" transform="translate(140,104)"/>
    <path d="M0 0 C0.44988281 0.34933594 0.89976563 0.69867188 1.36328125 1.05859375 C0.80833088 3.76607889 0.55701856 4.86485644 -1.44921875 6.87109375 C-3.63671875 8.05859375 -3.63671875 8.05859375 -5.63671875 7.87109375 C-7.63671875 7.05859375 -7.63671875 7.05859375 -9.4765625 5.99609375 C-12.00265697 4.89977789 -13.48252855 4.92891672 -16.19921875 5.24609375 C-17.34583984 5.36017578 -17.34583984 5.36017578 -18.515625 5.4765625 C-21.05146338 6.17240029 -22.02414303 7.00488789 -23.63671875 9.05859375 C-25.14880272 13.59484566 -25.32656584 17.42474537 -23.44921875 21.87109375 C-21.25199717 24.5229129 -19.9936711 25.29565003 -16.63671875 26.05859375 C-12.43308297 25.76868783 -10.16389498 25.41004457 -6.63671875 23.05859375 C-3.17253486 23.40501214 -1.58741994 24.09145962 1.36328125 26.05859375 C1.02794349 29.18841287 0.36261724 30.05920534 -2.01171875 32.24609375 C-6.19197793 35.13246318 -9.46606329 35.24491125 -14.44921875 35.30859375 C-16.25326172 35.34726563 -16.25326172 35.34726563 -18.09375 35.38671875 C-23.31320069 34.90332971 -27.35132635 32.94364035 -30.88671875 29.05859375 C-34.88213691 24.08534957 -35.98142055 18.07092276 -35.44140625 11.78515625 C-34.36379954 6.6714226 -32.256908 2.0112586 -27.99609375 -1.1640625 C-18.87659037 -6.69523955 -8.61327239 -6.09315662 0 0 Z " fill="#5E17EB" transform="translate(86.63671875,107.94140625)"/>
    <path d="M0 0 C-0.33 2.64 -0.66 5.28 -1 8 C-5.29 7.67 -9.58 7.34 -14 7 C-13.45870373 11.07909454 -13.45870373 11.07909454 -10.63671875 12.5625 C-9.17685547 13.2740625 -9.17685547 13.2740625 -7.6875 14 C-3.79853555 15.91073287 -0.76187686 17.61099972 2 21 C3.3497311 25.12294911 3.45374799 28.8404218 1.875 32.875 C-1.16995725 36.32595155 -3.75755605 37.86626471 -8.375 38.36328125 C-9.57125 38.34652344 -10.7675 38.32976562 -12 38.3125 C-13.19625 38.30863281 -14.3925 38.30476563 -15.625 38.30078125 C-18.83915693 38.01433439 -21.10539759 37.37603259 -24 36 C-23.67 33.69 -23.34 31.38 -23 29 C-19.98968256 28.06576355 -19.13349732 27.95550089 -16 29 C-14.60560336 29.06665376 -13.20830125 29.08538199 -11.8125 29.0625 C-10.554375 29.041875 -9.29625 29.02125 -8 29 C-8.09557706 27.07989204 -8.09557706 27.07989204 -9 25 C-11.39777013 23.37922858 -11.39777013 23.37922858 -14.3125 22.0625 C-22.03029228 18.03321104 -22.03029228 18.03321104 -24 14 C-24.77380954 9.44866863 -24.62655772 6.13262357 -22.375 2.0625 C-15.69091696 -3.74209843 -7.81941126 -2.55327715 0 0 Z " fill="#5E17EB" transform="translate(250,105)"/>
    <path d="M0 0 C3.63 0 7.26 0 11 0 C11 3.96 11 7.92 11 12 C7.37 12 3.74 12 0 12 C0 8.04 0 4.08 0 0 Z " fill="#5E17EB" transform="translate(95,79)"/>
    <path d="M0 0 C3.63 0 7.26 0 11 0 C11 3.63 11 7.26 11 11 C7.37 11 3.74 11 0 11 C0 7.37 0 3.74 0 0 Z " fill="#5E17EB" transform="translate(81,80)"/>
    <path d="M0 0 C3.63 0 7.26 0 11 0 C11 3.63 11 7.26 11 11 C7.37 11 3.74 11 0 11 C0 7.37 0 3.74 0 0 Z " fill="#5E17EB" transform="translate(95,66)"/>
    <path d="M0 0 C3.63 0 7.26 0 11 0 C11 3.63 11 7.26 11 11 C7.37 11 3.74 11 0 11 C0 7.37 0 3.74 0 0 Z " fill="#5E17EB" transform="translate(81,66)"/>
</svg>
